<svg width="24" height="24" viewBox="0 0 24 24" fill="none" xmlns="http://www.w3.org/2000/svg">
<circle cx="12" cy="12" r="11" stroke="#646464" stroke-width="2"/>
<path fill-rule="evenodd" clip-rule="evenodd" d="M12 24C18.6274 24 24 18.6274 24 12C24 5.37258 18.6274 0 12 0C5.37258 0 0 5.37258 0 12C0 18.6274 5.37258 24 12 24ZM17.3048 7.30452L10.8535 14.0593L7.69515 10.7524C7.30736 10.3464 6.67863 10.3464 6.29084 10.7524C5.90305 11.1584 5.90305 11.8167 6.29084 12.2227L10.8535 17L18.7092 8.77488C19.0969 8.36885 19.0969 7.71055 18.7092 7.30452C18.3214 6.89849 17.6926 6.89849 17.3048 7.30452Z" fill="#FF5D17"/>
</svg>
